<svg viewBox="329.2539 311.1446 380 144.7107" width="5000" height="1904.0881578947367" xmlns="http://www.w3.org/2000/svg" xmlns:xlink="http://www.w3.org/1999/xlink" preserveAspectRatio="none"><defs></defs><style>.a-2ZeWSCDz0filter-floo {flood-color:#0B0F28;flood-opacity:0.5;}.aD6z1nYkhcolor {fill:#000000;fill-opacity:1;}.aD6z1nYkhstrokeColor-str {stroke:#3F3F3F;stroke-opacity:1;}.aLSjkMQlR60filter-floo {flood-color:#FFFFFF;flood-opacity:0.5;}</style><defs>
      <filter
        x="469.8379"
        y="353.8162"
        width="239.416"
        height="59.3676"
        id="LSjkMQlR6"
        filterUnits="userSpaceOnUse"
        primitiveUnits="userSpaceOnUse"
        color-interpolation-filters="sRGB">
        <feMerge><feMergeNode in="SourceGraphic" /></feMerge>
      </filter>
      <filter
        x="329.2539"
        y="311.1446"
        width="122.5608"
        height="144.7107"
        id="-2ZeWSCDz"
        filterUnits="userSpaceOnUse"
        primitiveUnits="userSpaceOnUse"
        color-interpolation-filters="sRGB">
        <feMerge><feMergeNode in="SourceGraphic" /></feMerge>
      </filter></defs><defs></defs><g opacity="1" transform="rotate(0 329.2539 311.1446)">
<svg width="122.5608" height="144.7107" x="329.2539" y="311.1446" version="1.1" preserveAspectRatio="none" viewBox="32.458580017089844 19.999998092651367 135.3414306640625 159.79998779296875">
  <g transform="matrix(-1 0 0 1 200.2585906982422 0)"><g><g><defs><path d="M167.5 109.2v-.5l-40.6-70c-.2-.3-.5-.5-.8-.5H94L75.4 20.3s-.1 0-.1-.1l-.1-.1c-.1 0-.2-.1-.3-.1h-.5c-.1 0-.1 0-.2.1L44.4 38.3c-.1.1-.2.1-.2.2-.2.2-.2.3-.2.4L32.5 89.7v.4c-.1.2 0 .5.1.7l41.2 70.4c0 .1.1.1.1.2.1.1.3.2.4.2H110l15.3 17.9c.1.1.2.2.3.2h.1c.1 0 .2.1.4.1h.3c.1 0 .1 0 .2-.1h.1l29.8-18.2.1-.1c.1 0 .1-.1.2-.1l.1-.1c0-.1.1-.1.1-.2v-.1l10.8-51.8c-.3.2-.3.2-.3.1zM155 159.9h-16.8l26.2-45.2-9.4 45.2zm-2.6 1.9l-23.7 14.4 8.4-14.4h15.3zM99 146.2L36.2 91l126.7 18.5L99 146.2zm-24 13.4L36.6 93.9l60.6 53.3L75 159.6zm-29.5-119l12.2 7L35.6 85l9.9-44.4zM60.4 47l4.1-6.9h28.8l67.5 64.8L60.4 47zm100.8 60.3L35.5 88.9l23.9-40.3 101.8 58.7zM58.7 46l-10.2-5.9h13.7L58.7 46zm-10.4-7.8l23.6-14.4-8.5 14.4H48.3zm116.1 72.7l-28.4 49h-25.1l-10.5-12.3 64-36.7zm-39-70.8l36.9 63.6L96 40.1h29.4zm-59.8-1.9l9.3-15.7 16.4 15.7H65.6zm12.8 121.7l20.3-11.3 9.7 11.3h-30zm56.5 1.9l-9 15.6-13.3-15.6h22.3z" data-color="1" id="id-LgOaV3zR2"></path></defs><use style="fill:#000000;fill-opacity:1;" xlink:href="#id-LgOaV3zR2"></use></g></g></g>
</svg>
</g><g opacity="1" transform="rotate(0 469.8379 353.8162)">
<svg width="239.416" height="59.3676" x="469.8379" y="353.8162" version="1.1" preserveAspectRatio="none" viewBox="1.64 -28.08 113.24 28.08">
  <g transform="matrix(1 0 0 1 0 0)" class="aD6z1nYkhcolor"><path id="id-D6z1nYkh6" d="M7.92 0Q7.56 0 7.48-0.36L7.48-0.36L1.64-27.56L1.64-27.64Q1.64-28 2-28L2-28L2.84-28Q3.24-28 3.28-27.64L3.28-27.64L8.28-3.24Q8.32-3.12 8.36-3.12Q8.40-3.12 8.44-3.24L8.44-3.24L13.44-27.64Q13.52-28 13.88-28L13.88-28L14.68-28Q15.12-28 15.04-27.56L15.04-27.56L9.24-0.36Q9.20 0 8.80 0L8.80 0L7.92 0Z M35-27Q35-26.60 34.60-26.60L34.60-26.60L24.96-26.60Q24.80-26.60 24.80-26.44L24.80-26.44L24.80-14.88Q24.80-14.72 24.96-14.72L24.96-14.72L31.28-14.72Q31.68-14.72 31.68-14.32L31.68-14.32L31.68-13.72Q31.68-13.32 31.28-13.32L31.28-13.32L24.96-13.32Q24.80-13.32 24.80-13.16L24.80-13.16L24.80-1.56Q24.80-1.40 24.96-1.40L24.96-1.40L34.60-1.40Q35-1.40 35-1L35-1L35-0.40Q35 0 34.60 0L34.60 0L23.64 0Q23.24 0 23.24-0.40L23.24-0.40L23.24-27.60Q23.24-28 23.64-28L23.64-28L34.60-28Q35-28 35-27.60L35-27.60L35-27Z M54.80 0Q54.44 0 54.32-0.32L54.32-0.32L49.64-13.32Q49.60-13.44 49.48-13.44L49.48-13.44L45.16-13.44Q45-13.44 45-13.28L45-13.28L45-0.40Q45 0 44.60 0L44.60 0L43.84 0Q43.44 0 43.44-0.40L43.44-0.40L43.44-27.68Q43.44-28.08 43.84-28.08L43.84-28.08L49.76-28.08Q52.48-28.08 54.14-26.04Q55.80-24 55.80-20.68L55.80-20.68Q55.80-17.92 54.58-16.04Q53.36-14.16 51.28-13.60L51.28-13.60Q51.08-13.52 51.16-13.40L51.16-13.40L55.84-0.44L55.88-0.28Q55.88 0 55.52 0L55.52 0L54.80 0ZM45.16-26.64Q45-26.64 45-26.48L45-26.48L45-14.96Q45-14.80 45.16-14.80L45.16-14.80L49.60-14.80Q51.68-14.80 52.96-16.42Q54.24-18.04 54.24-20.68L54.24-20.68Q54.24-23.36 52.98-25Q51.72-26.64 49.60-26.64L49.60-26.64L45.16-26.64Z M74.68-28Q75.08-28 75.08-27.60L75.08-27.60L75.08-27Q75.08-26.60 74.68-26.60L74.68-26.60L69.32-26.60Q69.16-26.60 69.16-26.44L69.16-26.44L69.16-0.40Q69.16 0 68.76 0L68.76 0L68 0Q67.60 0 67.60-0.40L67.60-0.40L67.60-26.44Q67.60-26.60 67.44-26.60L67.44-26.60L62.44-26.60Q62.04-26.60 62.04-27L62.04-27L62.04-27.60Q62.04-28 62.44-28L62.44-28L74.68-28Z M94.92-27Q94.92-26.60 94.52-26.60L94.52-26.60L84.88-26.60Q84.72-26.60 84.72-26.44L84.72-26.44L84.72-14.88Q84.72-14.72 84.88-14.72L84.88-14.72L91.20-14.72Q91.60-14.72 91.60-14.32L91.60-14.32L91.60-13.72Q91.60-13.32 91.20-13.32L91.20-13.32L84.88-13.32Q84.72-13.32 84.72-13.16L84.72-13.16L84.72-1.56Q84.72-1.40 84.88-1.40L84.88-1.40L94.52-1.40Q94.92-1.40 94.92-1L94.92-1L94.92-0.40Q94.92 0 94.52 0L94.52 0L83.56 0Q83.16 0 83.16-0.40L83.16-0.40L83.16-27.60Q83.16-28 83.56-28L83.56-28L94.52-28Q94.92-28 94.92-27.60L94.92-27.60L94.92-27Z M102.08 0Q101.88 0 101.78-0.14Q101.68-0.28 101.76-0.48L101.76-0.48L107.44-13.88Q107.52-14 107.44-14.12L107.44-14.12L101.76-27.52L101.72-27.68Q101.72-28 102.08-28L102.08-28L102.92-28Q103.24-28 103.36-27.68L103.36-27.68L108.20-15.72Q108.24-15.64 108.32-15.62Q108.40-15.60 108.44-15.72L108.44-15.72L113.24-27.68Q113.36-28 113.68-28L113.68-28L114.52-28Q114.72-28 114.82-27.86Q114.92-27.72 114.84-27.52L114.84-27.52L109.12-14.08Q109.08-13.96 109.12-13.84L109.12-13.84L114.84-0.48L114.88-0.32Q114.88 0 114.52 0L114.52 0L113.68 0Q113.36 0 113.24-0.32L113.24-0.32L108.44-12.24Q108.40-12.32 108.32-12.32Q108.24-12.32 108.20-12.24L108.20-12.24L103.36-0.32Q103.24 0 102.92 0L102.92 0L102.08 0Z"/></g>
</svg>
</g></svg>