<svg data-bbox="27.5 20 145 160" viewBox="27.5 20 145 160" height="200" width="200" xmlns="http://www.w3.org/2000/svg" data-type="color" aria-hidden="true"><defs><style>#comp-lbtru0jm__item1 svg [data-color=&quot;1&quot;]{fill:#131d47}</style></defs><path d="M135.764 167.39H27.5V20h108.264v147.39zm-104.636-3.628h101.007V23.628H31.128v140.134z" fill="#1b2258" data-color="1"/><path d="M148.377 180H40.113v-14.424a1.814 1.814 0 1 1 3.628 0v10.797h101.007V36.237H133.95a1.814 1.814 0 1 1 0-3.628h14.426V180zM79.758 72.247H40.113V32.609h39.645v39.638zm-36.017-3.628h32.388V36.237H43.741v32.382z" fill="#1b2258" data-color="1"/><path d="M123.006 95.589H39.858a1.814 1.814 0 1 1 0-3.628h83.148a1.814 1.814 0 1 1 0 3.628zm0 14.505H39.858a1.814 1.814 0 1 1 0-3.628h83.148a1.814 1.814 0 1 1 0 3.628zm0-73.857h-33.7a1.814 1.814 0 1 1 0-3.628h33.7a1.814 1.814 0 1 1 0 3.628zm0 13.211h-33.7a1.814 1.814 0 1 1 0-3.628h33.7a1.814 1.814 0 1 1 0 3.628zm0 75.152H39.858a1.814 1.814 0 1 1 0-3.628h83.148a1.814 1.814 0 1 1 0 3.628zm0 29.51H94.245a1.814 1.814 0 1 1 0-3.628h28.761a1.814 1.814 0 1 1 0 3.628zm-1.74-6.473a1.814 1.814 0 0 1-1.814-1.814v-5.752H97.799v5.752a1.814 1.814 0 1 1-3.628 0v-9.379h28.91v9.379a1.815 1.815 0 0 1-1.815 1.814zm51.234 7.673h-12.637V97.441H172.5v57.869zm-9.008-3.628h5.38v-50.614h-5.38v50.614z" fill="#1b2258" data-color="1"/><path d="M166.604 170.923h-.845a5.902 5.902 0 0 1-5.896-5.895v-13.345H172.5v13.345a5.903 5.903 0 0 1-5.896 5.895zm-3.112-15.613v9.718a2.27 2.27 0 0 0 2.268 2.267h.845a2.27 2.27 0 0 0 2.268-2.267v-9.718h-5.381z" fill="#1b2258" data-color="1"/><path d="M166.182 180a1.814 1.814 0 0 1-1.814-1.814v-9.077a1.814 1.814 0 1 1 3.628 0v9.077a1.814 1.814 0 0 1-1.814 1.814zm6.318-78.931h-12.637v-6.74a5.902 5.902 0 0 1 5.896-5.895h.845a5.902 5.902 0 0 1 5.896 5.895v6.74zm-9.008-3.628h5.38v-3.112a2.27 2.27 0 0 0-2.268-2.267h-.845a2.27 2.27 0 0 0-2.268 2.267v3.112z" fill="#1b2258" data-color="1"/></svg>